<?xml version="1.0" standalone="no"?>
<!DOCTYPE svg PUBLIC "-//W3C//DTD SVG 20010904//EN"
 "http://www.w3.org/TR/2001/REC-SVG-20010904/DTD/svg10.dtd">
<svg version="1.0" xmlns="http://www.w3.org/2000/svg"
 width="400.000000pt" height="400.000000pt" viewBox="0 0 400.000000 400.000000"
 preserveAspectRatio="xMidYMid meet">
<metadata>
Created by potrace 1.11, written by Peter Selinger 2001-2013
</metadata>
<g transform="translate(0.000000,400.000000) scale(0.100000,-0.100000)"
fill="#000000" stroke="none">
<path d="M1592 3274 c-203 -42 -357 -235 -477 -599 -26 -81 -107 -380 -120
-445 -2 -8 -17 -82 -33 -165 -17 -82 -33 -166 -36 -185 -7 -44 -68 -185 -151
-349 -75 -147 -81 -168 -65 -216 22 -68 94 -108 153 -86 24 9 27 7 37 -27 7
-20 23 -54 36 -74 25 -40 25 -42 -21 -52 -45 -11 -95 -64 -95 -100 0 -52 10
-70 47 -96 33 -23 46 -25 137 -24 163 1 324 56 489 167 208 140 453 439 531
649 35 92 39 111 42 205 3 94 -17 162 -63 217 -37 43 -143 102 -219 119 -58
14 -68 14 -132 2 -38 -7 -37 -5 8 55 122 161 241 365 293 505 33 89 49 232 33
300 -34 153 -202 238 -394 199z m199 -213 c14 -42 5 -125 -23 -211 -22 -67
-127 -282 -140 -288 -5 -2 -8 -8 -8 -13 0 -13 -113 -186 -185 -284 -95 -128
-263 -321 -272 -311 -5 5 28 139 72 291 77 268 175 496 284 661 132 200 238
260 272 155z m-26 -1028 c40 -40 47 -124 19 -241 -16 -68 -88 -228 -121 -270
-144 -187 -281 -303 -395 -336 -147 -43 -186 107 -83 316 138 279 385 521 557
547 4 1 14 -6 23 -16z"/>
<path d="M2818 2521 c-99 -20 -248 -121 -385 -262 -161 -167 -255 -303 -318
-464 -23 -59 -34 -138 -31 -235 2 -84 6 -103 34 -162 68 -140 208 -212 395
-203 108 6 185 27 294 80 215 106 409 314 538 577 61 123 71 173 48 221 -18
36 -69 67 -111 67 -61 0 -86 -23 -131 -115 -86 -179 -197 -315 -350 -431 -88
-66 -201 -126 -258 -137 -23 -5 -38 -1 -56 13 -23 18 -25 26 -22 76 2 31 6 59
9 62 3 2 25 6 48 9 61 5 227 89 328 166 239 182 343 379 292 552 -44 151 -160
217 -324 186z m116 -177 c25 -24 20 -91 -11 -153 -29 -56 -137 -174 -233 -254
-70 -58 -161 -109 -250 -141 -79 -29 -79 -32 -21 76 105 198 298 411 426 469
49 23 69 24 89 3z"/>
</g>
</svg>
