<?xml version="1.0" standalone="no"?>
<!DOCTYPE svg PUBLIC "-//W3C//DTD SVG 20010904//EN"
 "http://www.w3.org/TR/2001/REC-SVG-20010904/DTD/svg10.dtd">
<svg version="1.0" xmlns="http://www.w3.org/2000/svg"
 width="285.000000pt" height="285.000000pt" viewBox="0 0 285.000000 285.000000"
 preserveAspectRatio="xMidYMid meet">
<metadata>
Created by potrace 1.11, written by Peter Selinger 2001-2013
</metadata>
<g transform="translate(0.000000,285.000000) scale(0.100000,-0.100000)"
fill="#000000" stroke="none">
<path d="M952 2624 c-212 -46 -370 -252 -491 -642 -27 -88 -96 -349 -107 -407
-2 -11 -15 -74 -29 -140 -13 -66 -27 -138 -30 -160 -12 -81 -46 -165 -150
-373 -85 -170 -91 -189 -76 -235 24 -70 108 -115 163 -86 13 7 19 2 29 -29 7
-20 22 -53 34 -72 l22 -36 -56 -26 c-60 -28 -81 -56 -81 -108 0 -38 42 -87 85
-99 43 -12 155 -11 208 1 23 5 53 12 67 14 43 8 132 44 210 85 282 147 596
526 667 806 3 15 7 71 7 123 0 139 -32 200 -140 265 -99 60 -180 78 -267 61
l-38 -7 55 78 c136 190 241 378 286 514 42 122 41 264 -2 344 -35 65 -116 120
-194 130 -95 12 -110 12 -172 -1z m189 -191 c20 -37 17 -137 -6 -213 -18 -60
-93 -221 -147 -315 -48 -84 -191 -290 -262 -378 -86 -107 -197 -230 -202 -224
-13 13 105 423 167 579 87 221 197 412 295 512 76 77 128 90 155 39z m-20
-1046 c80 -62 33 -319 -94 -507 -105 -156 -294 -317 -407 -347 -134 -36 -174
110 -83 302 30 63 40 79 108 185 125 194 326 360 455 379 3 0 12 -5 21 -12z"/>
<path d="M2185 1873 c-39 -8 -110 -37 -126 -50 -8 -7 -20 -13 -25 -13 -14 0
-133 -95 -198 -158 -203 -197 -346 -412 -382 -574 -13 -60 -16 -183 -4 -240
62 -320 462 -393 826 -152 79 52 226 200 302 302 66 89 150 248 177 334 16 49
16 57 2 90 -19 44 -68 78 -115 78 -58 0 -89 -27 -132 -117 -61 -127 -126 -220
-225 -318 -158 -159 -363 -274 -430 -243 -14 6 -26 18 -27 27 -10 102 -2 123
45 128 150 15 423 201 543 369 107 150 127 282 63 409 -45 88 -109 128 -209
130 -36 1 -74 0 -85 -2z m115 -182 c14 -28 12 -86 -5 -127 -38 -91 -201 -256
-343 -347 -69 -45 -206 -97 -210 -80 -5 19 61 135 135 240 159 225 382 390
423 314z"/>
</g>
</svg>
