<svg xmlns="http://www.w3.org/2000/svg" viewBox="0 0 500 500">
  <path d="M456.758,236.237a177.842,177.842,0,0,0-2.93-23.88c-9.393-49.778-34.067-90.516-72.574-123.041C366.567,76.9,350.077,67.389,332.582,59.567a197.1,197.1,0,0,0-53.327-15.4c-12.354-1.726-24.832-1.849-37.265-1.858C227.73,42.3,213.7,44.8,199.927,48.335q-66.078,16.955-109.818,69.5c-19.751,23.79-33.128,50.907-41.018,80.759a174.471,174.471,0,0,0-5.529,30.1c-.885,10.686-.509,21.417-.472,32.129a104.308,104.308,0,0,0,.934,14.753,224.271,224.271,0,0,0,17.392,60.3,207.381,207.381,0,0,0,128.658,112.79,207.7,207.7,0,0,0,45.094,8.4c3.855.291,7.731,0,11.562.63h7.177c3.615-.637,7.285-.355,10.931-.619a201.559,201.559,0,0,0,47.716-9.209c45.972-14.927,82.352-42.721,109.522-82.636a201.785,201.785,0,0,0,32.4-81,173.088,173.088,0,0,0,2.273-20.778,13.3,13.3,0,0,1,.27-1.653V237.684A11.054,11.054,0,0,1,456.758,236.237ZM248.43,437.69C146.879,437.121,62.4,353.111,62.524,249.435c.12-102.186,83.986-187,186.364-187.344,105.312-.35,188.779,85.739,188.3,188.053C437.42,354.7,351.8,438.271,248.43,437.69ZM255.963,288.5c8.145-1.979,15.81-5.088,22.39-10.44,8.844-7.191,13.781-16.357,14.037-27.926.052-2.154-.683-3.065-2.794-3.182a48.011,48.011,0,0,0-9.036-.108c-8.327,1.084-15.572,4.116-20.991,10.867a38.188,38.188,0,0,0-5.81,9.635c0-6.626-.357-13.177.106-19.726a2.281,2.281,0,0,1,1.885-2.376c2.634-.746,5.275-1.519,7.843-2.467,8.316-3.065,15.84-7.419,21.477-14.422a32.1,32.1,0,0,0,6.991-21.845c-.056-1.71-.932-2.592-2.714-2.91-3.324-.593-6.611-.172-9.879.188-10.336,1.146-18.342,5.94-23.235,15.389-.8,1.538-1.556,3.093-2.444,4.864a3.811,3.811,0,0,1-.265-.807c-.007-6.344.028-12.69-.035-19.039-.016-1.653,1.017-1.952,2.233-2.239a62.749,62.749,0,0,0,22.432-10.477c9.721-7.052,13.926-17,14.2-28.824.028-1.322-.373-2.054-1.864-2.209-3.146-.334-6.269-.8-9.445-.346-12.281,1.75-21.66,7.487-26.653,19.324-.164.39-.045,1.035-.862,1.15,0-4.413.134-8.788-.051-13.147a8.99,8.99,0,0,1,2.251-6.539c3.885-4.669,6.905-9.825,7.407-16.056a81.978,81.978,0,0,0,.329-13.933,18.365,18.365,0,0,0-.763-5.205,57.107,57.107,0,0,0-10.912-17.47c-1.205-1.339-2.336-1.437-3.522-.061-6.62,7.668-12.008,15.593-12.008,26.6,0,10.635,1.979,20.117,9.339,28.053a4.124,4.124,0,0,1,.981,3.124c-.113,4.3-.174,8.6-.275,12.9a2.911,2.911,0,0,1-.3,1.908c-1.744-3.559-3.04-7.186-5.7-10-8.543-9.042-19.115-11.86-31.159-10.185-1.242.172-1.38.929-1.406,1.929-.319,12.013,4.3,21.744,13.887,28.852a57.752,57.752,0,0,0,22.807,10.579c1.721.352,2.292,1.171,2.191,2.9-.141,2.39-.012,4.792-.043,7.191-.049,3.907.2,7.826-.425,12.114-.481-.959-.812-1.562-1.091-2.187-6.447-14.5-20-19.672-34.323-18.265-2.031.2-2.97,1.173-3.022,3.272a31.049,31.049,0,0,0,1.517,10.822c3.726,11.042,11.8,17.915,21.866,22.862a82.352,82.352,0,0,0,13.314,4.7c.927.27,1.751.524,1.747,1.738-.012,6.612-.008,13.224-.008,20.055-.295-.261-.37-.3-.4-.36-6.4-15.769-20.89-21.485-35.685-19.777-1.662.193-2.39.785-2.378,2.651.08,12.906,5.388,22.972,16.114,30.113a61.768,61.768,0,0,0,20.646,8.854c1.547.353,2.258,1.051,2.164,2.736-.131,2.392-.033,4.793-.033,7.19V311.7a8.843,8.843,0,0,1-1.467-2.646c-5.611-14.777-20.178-19.865-34.187-18.644-2.671.235-3.242,1-3.176,3.728.244,10.628,3.843,19.641,12.475,26.324a59.981,59.981,0,0,0,23.919,11.6c.979.217,2,.311,2,1.689,0,6.735,0,13.469,0,20.808a34.363,34.363,0,0,0-2.486-5.45c-7.837-13-20.674-17.049-34.469-15.106-1.225.172-1.425.856-1.462,1.884a33.071,33.071,0,0,0,12.093,27.63c6.979,5.932,15.224,9.571,24.087,11.725,2.061.5,2.749,1.466,2.7,3.489a59.792,59.792,0,0,0,.453,10.764c.263,1.634.885,3.072,2.822,3.14,1.97.068,2.594-1.32,2.916-2.983.714-3.69.338-7.452.617-11.173.151-2,.822-2.794,2.7-3.251a60.307,60.307,0,0,0,21.918-10.072c9.632-7.127,13.98-16.978,14.321-28.8.039-1.5-.369-2.312-2.05-2.5a39.543,39.543,0,0,0-8.825-.258c-8.463.922-15.943,3.81-21.613,10.552a37.527,37.527,0,0,0-6.125,9.931c0-6.478-.3-12.881.085-19.291.1-1.71.652-2.484,2.319-2.879a67.228,67.228,0,0,0,20.209-8.851c6.989-4.378,11.485-10.672,14.164-18.364a29.033,29.033,0,0,0,1.721-10.792c-.111-2.656-.893-3.218-3.5-3.5a41.241,41.241,0,0,0-6.733.012c-12.5.679-21.543,6.567-27.006,17.9a6.107,6.107,0,0,1-1.5,2.484c0-6.627.066-12.9-.044-19.164C253.43,289.694,254.128,288.946,255.963,288.5Zm-79.229-43.764q-19.84.067-39.683,0c-1.756-.01-2.35.637-2.326,2.352.07,4.582.016,9.167.023,13.749.007,2.966.087,3.011,3.1,3.114,6.046.21,12.1-.115,18.141.355,1.434.109,1.967.6,1.958,2.047-.017,2.886.073,5.777.185,8.663.329,8.4,1.526,6.786-5.97,10.825-10.208,5.5-21.274,2.564-27.876-6.991a33,33,0,0,1-5.332-11.662c-2.84-13.1-2.685-26.148,1.425-39a26.3,26.3,0,0,1,6.82-11.032c8.283-8.021,19.045-8.028,27.28.035a44.4,44.4,0,0,1,5.7,7.057c.589.875,1.165,1.552,2.4.934,4.275-2.143,8.625-4.142,12.856-6.368,2.415-1.272,2.638-2.455,1.434-4.862a40.372,40.372,0,0,0-56.53-17.242c-12.081,6.885-18.823,17.847-22.751,30.817-2.672,8.816-2.834,17.872-2.625,26.992a66.1,66.1,0,0,0,7.849,30.384c9.9,18.314,29.026,26.945,49.214,22.283,10.072-2.327,18.345-7.633,25.454-15a4.649,4.649,0,0,0,1.439-3.542c-.054-6.838-.026-13.674-.026-20.512,0-7.05-.035-14.1.026-21.149C178.929,245.352,178.4,244.733,176.734,244.738Zm154.743-49q-.007,27.076,0,54.148v10.576q0,21.892-.022,43.782c0,1.647.216,2.625,2.254,2.583,5.768-.113,11.541-.064,17.31-.026,1.349.007,1.871-.506,1.873-1.863.016-2.818.207-5.634.228-8.449.075-11.776.157-23.553.122-35.324,0-1.99.5-2.656,2.582-2.66,11.962-.043,23.918-.278,35.88-.32,2.1-.012,2.618-.765,2.566-2.719-.115-4.441-.031-8.882-.038-13.323,0-2.915-.011-2.924-2.911-2.924-12.034-.007-24.068-.04-36.1.035-1.871.009-2.409-.581-2.385-2.42.091-7.048.035-14.1.04-21.152,0-2.841,0-2.848,2.941-2.848,12.243,0,24.489-.036,36.732.033,1.93.011,2.594-.619,2.552-2.557-.1-4.865-.028-9.732-.035-14.594,0-2.855-.052-2.909-2.994-2.909q-28.82-.007-57.633,0C331.507,192.81,331.477,192.848,331.477,195.739Z" fill="#828282"/>
</svg>
