<svg xmlns="http://www.w3.org/2000/svg" viewBox="0 0 500 500">
  <path d="M450.243,252.358c-.9-5.961-1.059-11.883-1.789-17.785-.61-4.82-1.542-9.724-2.376-14.525a10.19,10.19,0,0,0-.915-2.4,2.468,2.468,0,0,0-.486.1c0,.545-.082,1.077-.04,1.583.122,2.015.282,3.989.345,6,.387,8.647.871,17.19,1.1,25.8.1,3.806-.225,7.591-.464,11.375-.348,5.189-.632,10.357-1.261,15.546-.791,6.062-1.627,12.227-2.925,18.23-1.383,6.631-3.207,13.1-5.116,19.573a135.372,135.372,0,0,1-5.057,14.3c-2.58,5.9-5.3,11.7-8.386,17.254a181.423,181.423,0,0,1-9.71,15.522,147.921,147.921,0,0,1-14.011,17.317,165.221,165.221,0,0,1-20.307,18.738c-4.914,3.745-9.91,7.386-14.985,10.767-5.28,3.556-10.682,6.774-16.124,9.825a142.749,142.749,0,0,1-13.769,6.713c-5.686,2.4-11.5,4.66-17.385,6.615a146.19,146.19,0,0,1-21.972,5.7,188.466,188.466,0,0,1-33.748,3.427c-5.93,0-11.86-.195-17.75-.722q-9.255-.762-18.418-2.362c-5.625-1-11.351-2.408-16.955-3.933-5.383-1.529-10.785-3.215-16.086-5.191-5.463-2.136-10.783-4.627-16.082-7.071a155.581,155.581,0,0,1-19.373-11.027,176.293,176.293,0,0,1-18.279-13.947,173.612,173.612,0,0,1-26.235-27.947,188.968,188.968,0,0,1-17.34-27.65,228.609,228.609,0,0,1-9.668-21.629A198.036,198.036,0,0,1,77.2,296.491a206.636,206.636,0,0,1-4.467-25.922c-.489-4.559-.852-9.056-.935-13.591-.1-6.107-.1-12.147.2-18.152a132.654,132.654,0,0,1,3.17-25c1.5-6.755,3.047-13.53,5.158-20.083a153.385,153.385,0,0,1,6.822-17.621,164.836,164.836,0,0,1,8.184-16.155c2.984-5.248,6.357-10.284,9.769-15.167a163.525,163.525,0,0,1,17.3-20.907,207.956,207.956,0,0,1,28.428-24.557c3.817-2.809,7.8-5.554,11.76-8.141,3.714-2.339,7.613-4.616,11.473-6.855,4.265-2.383,8.569-4.537,12.914-6.777,3.209-1.606,6.377-3.133,9.588-4.739a1.517,1.517,0,0,0,.608-.53,3.337,3.337,0,0,0-1.951-.244,35.215,35.215,0,0,0-4.751,1.425c-7.393,2.806-14.866,5.351-22.137,8.482q-9.927,4.461-19.373,9.739a175.449,175.449,0,0,0-21.688,14.271A197,197,0,0,0,100.409,130.7a176.64,176.64,0,0,0-17.077,22.139c-3.454,5.269-6.581,10.782-9.666,16.258a105.552,105.552,0,0,0-4.916,9.826c-1.869,3.947-3.573,7.957-5.158,11.984-1.4,3.482-2.6,6.937-3.775,10.5-1.343,4.048-2.66,8.058-3.615,12.168-1.444,5.838-2.641,11.761-3.778,17.681A152.6,152.6,0,0,0,49.7,255.329c-.122,2.418.144,4.923-.363,7.344-.611,2.949-.409,5.819-.51,8.708a12.636,12.636,0,0,0,.183,1.771c.2,1.2.383,2.359.489,3.521.037,1.322,0,2.642.079,3.966.489,5.8.932,11.535,1.585,17.336.69,5.126,1.463,10.253,2.6,15.36,1.482,6.554,3.207,13.123,5.074,19.533,1.462,4.966,3.169,9.889,5.118,14.69,2.112,5.231,4.385,10.3,6.822,15.381a136.188,136.188,0,0,0,6.562,12.373c3.594,5.881,7.409,11.721,11.391,17.4a163.257,163.257,0,0,0,17.626,20.938A141.384,141.384,0,0,0,123.3,428.985q7.311,5.558,14.762,10.844c3.311,2.28,6.8,4.3,10.276,6.37,4.083,2.3,8.144,4.516,12.41,6.511,5.054,2.444,10.273,4.66,15.553,6.695,4.9,1.933,9.931,3.662,14.988,5.247,4.651,1.447,9.423,2.687,14.215,3.745,5.766,1.285,11.532,2.588,17.34,3.439,6.947.958,14.056,1.524,21.082,2.3,1.622.122,3.308.388,4.975.487,2.294.143,4.587.376,6.883.376a47.964,47.964,0,0,0,5.158-.772c3.94-.451,7.919-.7,11.778-1.232,4.386-.569,8.771-1.353,13.117-2.127,3.331-.661,6.7-1.371,9.994-2.187,4.508-1.2,8.973-2.4,13.4-3.825,6.153-2.077,12.266-4.232,18.318-6.643,4.834-2,9.544-4.344,14.213-6.746,5.729-3.091,11.457-6.144,16.875-9.684,6.074-3.966,11.9-8.341,17.648-12.8a169.9,169.9,0,0,0,22.5-21.078,186.544,186.544,0,0,0,17.441-22.523c2.681-4.13,5.426-8.3,7.818-12.575,2.845-5.309,5.569-10.662,8-16.155,2.559-5.455,4.832-11.008,6.865-16.666,2.073-5.857,3.695-11.82,5.259-17.719a181.625,181.625,0,0,0,5.543-31.478c.326-3.457.73-6.856,1.1-10.293.061-.837.244-1.691.244-2.566C451.053,269.367,451.624,260.864,450.243,252.358ZM224.833,82.667c2.193,4.881,4.224,9.765,6.78,14.363,2.987,5.189,6.337,10.235,9.748,15.118a104.135,104.135,0,0,0,18.4,19.655,107.066,107.066,0,0,0,16.166,11.373c3.96,2.24,8.04,4.293,12.184,6.168,3.289,1.484,6.862,2.6,10.316,3.886a111.954,111.954,0,0,0,20.225,5.064,167.692,167.692,0,0,0,28.94,2.16,182.44,182.44,0,0,0,34.377-3.5c7.557-1.5,15.11-3.354,22.6-5.441,6.6-1.884,13.056-4.325,19.557-6.482,1.42-.487,1.765-1.485,1.011-2.825a15.364,15.364,0,0,1-.889-1.428c-2.641-5-5.2-10.072-8.083-15.015-3.088-5.372-6.337-10.641-9.79-15.809-3.573-5.474-7.311-10.846-11.33-16.054q-6.762-8.729-14.112-17.091a164.3,164.3,0,0,0-20.493-20.02c-4.874-4.03-9.949-7.916-15.107-11.557a117.19,117.19,0,0,0-13-7.774,138.042,138.042,0,0,0-15.961-6.96c-4.571-1.706-9.445-2.644-14.136-3.8-1.5-.4-2.986-.447-4.446-.771a20.749,20.749,0,0,0-3.475-.732c-7.106.162-14.3-1-21.4,1.016-3.777,1.04-7.8,1.405-11.536,2.479a93.547,93.547,0,0,0-16.528,6.676c-7.494,3.825-14.3,8.67-21.037,13.7a1.93,1.93,0,0,0-.529,1.2,1.551,1.551,0,0,0,1.139.63,23.018,23.018,0,0,0,2.7.04c7.473.492,14.929.856,22.359,1.691a219.154,219.154,0,0,1,31.069,5.126c6.8,1.689,13.605,3.276,20.186,5.452,7.148,2.362,14.175,5.232,21.035,8.2a153.979,153.979,0,0,1,24.331,13.431,197.9,197.9,0,0,1,21.078,16.48,27.81,27.81,0,0,1,2.256,2.442,1.957,1.957,0,0,1-.329.59c-1.155-.529-2.334-1.016-3.51-1.548-5.808-2.787-11.658-5.758-17.586-8.444-5.564-2.381-11.25-4.575-16.936-6.551-7.393-2.583-14.866-5.088-22.442-7.141-7.9-2.075-15.837-3.846-23.817-5.474-4.935-1.016-9.891-1.586-14.948-2.258a301.107,301.107,0,0,0-35.741-2.4c-3.857-.082-7.634.125-11.409.125-1.808,0-2.44.872-1.771,2.625C222.293,76.38,223.45,79.572,224.833,82.667ZM305.046,210.34l-12.957-36.726H275.4v61.345h11.859v-44.78h.244l15.962,44.78h13.687V173.614H305.29V210.34Zm-79-22.177v32.27c0,9.788,7.149,15.4,20.207,15.4,13.1,0,20.246-5.615,20.246-15.4v-32.27c0-9.825-7.149-15.421-20.246-15.421C233.2,172.742,226.049,178.338,226.049,188.163Zm27.132-.612v33.494c0,4.373-2.681,6.041-6.925,6.041-4.2,0-6.884-1.668-6.884-6.041V187.551c0-4.351,2.684-6.04,6.884-6.04C250.5,181.511,253.181,183.2,253.181,187.551Zm-77.8-13.937v61.345h11.879v-44.78h.244l15.962,44.78h13.685V173.614H205.3V210.34h-.242L192.1,173.614Zm29.975,116.973v-9.132c0-17.112-11.921-26.9-34.889-26.9s-34.867,9.788-34.867,26.9v56.2c0,17.146,11.9,26.912,34.867,26.912s34.889-9.766,34.889-26.912V302.672H171.546v15.292h11.7v20.917c0,7.661-4.691,10.378-12.145,10.378-7.43,0-12.1-2.717-12.1-10.378V280.373c0-7.649,4.67-10.557,12.1-10.557,7.454,0,12.145,2.908,12.145,10.557v10.214Zm35.476-8.544h.467l17,81h19.556l17-81h.449v81h22.134V256.1h-33.4l-14.887,76.545h-.425l-14.9-76.545H220.445V363.045h20.39Zm92.315-.588v56.2c0,17.146,12.551,26.912,35.5,26.912,22.991,0,35.539-9.766,35.539-26.912v-56.2c0-17.112-12.548-26.9-35.539-26.9C345.7,254.555,333.15,264.343,333.15,281.455Zm47.642-1.082v58.348c0,7.658-4.712,10.538-12.147,10.538s-12.124-2.88-12.124-10.538V280.373c0-7.649,4.693-10.557,12.124-10.557S380.792,272.724,380.792,280.373Z" fill="#828282"/>
</svg>
