<svg xmlns="http://www.w3.org/2000/svg" viewBox="0 0 500 500">
  <path d="M456.756,236.237a177.837,177.837,0,0,0-2.927-23.88c-9.4-49.778-34.07-90.516-72.574-123.041C366.566,76.9,350.078,67.391,332.581,59.567a197.089,197.089,0,0,0-53.328-15.4c-12.353-1.726-24.831-1.849-37.265-1.858C227.729,42.3,213.7,44.8,199.925,48.335Q133.847,65.29,90.11,117.835c-19.751,23.79-33.128,50.907-41.021,80.759a174.854,174.854,0,0,0-5.529,30.1c-.882,10.686-.509,21.417-.472,32.129a105.056,105.056,0,0,0,.935,14.753,224.269,224.269,0,0,0,17.391,60.3,207.378,207.378,0,0,0,128.66,112.79,207.668,207.668,0,0,0,45.094,8.4c3.853.291,7.731,0,11.563.63h7.177c3.615-.64,7.284-.355,10.928-.619a201.577,201.577,0,0,0,47.717-9.209c45.972-14.929,82.351-42.721,109.521-82.636a201.776,201.776,0,0,0,32.4-81,172.668,172.668,0,0,0,2.272-20.78,13.926,13.926,0,0,1,.273-1.651V237.681A10.615,10.615,0,0,1,456.756,236.237ZM248.431,437.69C146.877,437.123,62.4,353.11,62.523,249.435c.119-102.186,83.988-187,186.363-187.344,105.312-.35,188.779,85.739,188.3,188.053C437.419,354.7,351.794,438.271,248.431,437.69Zm1.413-126.233h-.6l-47.876-151.44H152.9l69.55,215.4h53.293l71.362-215.4H298.319Z" fill="#828282"/>
</svg>
